<svg width="84" height="81" viewBox="0 0 84 81" fill="none" xmlns="http://www.w3.org/2000/svg">
<path fill-rule="evenodd" clip-rule="evenodd" d="M41 23H26.32L9.31725 1L7 23C7 23 3.36735 36.6743 1.81724 43.5C-0.396596 53.2484 1.81724 62.5 9.31725 70C17.4592 78.142 35.2667 79.6582 41 79.9376V80C41 80 41.3228 79.997 41.9086 79.9762C42.4944 79.997 42.8172 80 42.8172 80V79.9376C48.5505 79.6582 66.358 78.142 74.5 70C82 62.5 84.2138 53.2484 82 43.5C80.4499 36.6743 76.8172 23 76.8172 23L74.5 1L57.5 23H42.8172H41Z" fill="#F8F8F8"/>
<path d="M26.32 23L25.5288 23.6115C25.7181 23.8565 26.0103 24 26.32 24V23ZM9.31725 1L10.1085 0.38849C9.85865 0.0652236 9.43728 -0.0735508 9.04424 0.0379866C8.65121 0.149524 8.36554 0.488939 8.32275 0.89525L9.31725 1ZM7 23L7.96648 23.2568C7.97973 23.2069 7.98909 23.1561 7.9945 23.1047L7 23ZM1.81724 43.5L0.842069 43.2785H0.842069L1.81724 43.5ZM9.31725 70L10.0244 69.2929L9.31725 70ZM41 79.9376H42C42 79.4043 41.5814 78.9648 41.0487 78.9388L41 79.9376ZM41 80H40C40 80.2668 40.1067 80.5226 40.2962 80.7104C40.4858 80.8982 40.7425 81.0024 41.0093 81L41 80ZM41.9086 79.9762L41.9442 78.9768C41.9205 78.9759 41.8967 78.9759 41.873 78.9768L41.9086 79.9762ZM42.8172 80L42.8079 81C43.0747 81.0024 43.3315 80.8982 43.521 80.7104C43.7106 80.5226 43.8172 80.2668 43.8172 80H42.8172ZM42.8172 79.9376L42.7685 78.9388C42.2358 78.9648 41.8172 79.4043 41.8172 79.9376H42.8172ZM82 43.5L81.0248 43.7215L82 43.5ZM76.8172 23L75.8227 23.1047C75.8281 23.1561 75.8375 23.2069 75.8508 23.2568L76.8172 23ZM74.5 1L75.4945 0.89525C75.4517 0.488925 75.166 0.149502 74.7729 0.0379758C74.3799 -0.07355 73.9585 0.0652549 73.7087 0.388553L74.5 1ZM57.5 23V24C57.8097 24 58.1019 23.8565 58.2913 23.6114L57.5 23ZM26.32 24H41V22H26.32V24ZM8.52601 1.61151L25.5288 23.6115L27.1112 22.3885L10.1085 0.38849L8.52601 1.61151ZM7.9945 23.1047L10.3117 1.10475L8.32275 0.89525L6.0055 22.8953L7.9945 23.1047ZM2.79241 43.7215C3.56386 40.3245 4.85616 35.2124 5.95821 30.9401C6.50872 28.806 7.01085 26.8849 7.37536 25.4973C7.55761 24.8036 7.70544 24.2432 7.80768 23.8564C7.8588 23.6631 7.89852 23.513 7.92545 23.4114C7.93892 23.3606 7.94919 23.3219 7.95608 23.2959C7.95953 23.2829 7.96214 23.2731 7.96388 23.2666C7.96475 23.2633 7.9654 23.2608 7.96583 23.2592C7.96605 23.2584 7.96621 23.2577 7.96632 23.2573C7.96637 23.2571 7.96641 23.257 7.96644 23.2569C7.96647 23.2568 7.96648 23.2568 7 23C6.03352 22.7432 6.03351 22.7433 6.03348 22.7434C6.03345 22.7435 6.0334 22.7437 6.03335 22.7439C6.03323 22.7443 6.03307 22.745 6.03284 22.7458C6.03239 22.7475 6.03173 22.75 6.03085 22.7533C6.02908 22.76 6.02645 22.7699 6.02298 22.783C6.01603 22.8091 6.00571 22.848 5.9922 22.8991C5.96516 23.0011 5.92532 23.1515 5.87409 23.3453C5.77161 23.733 5.62353 24.2943 5.44099 24.9892C5.07594 26.3788 4.57303 28.3029 4.02161 30.4406C2.91981 34.7119 1.62073 39.8498 0.842069 43.2785L2.79241 43.7215ZM10.0244 69.2929C2.78399 62.0525 0.64927 53.1585 2.79241 43.7215L0.842069 43.2785C-1.44246 53.3382 0.850495 62.9475 8.61014 70.7071L10.0244 69.2929ZM41.0487 78.9388C38.2118 78.8005 32.3924 78.3559 26.2874 76.943C20.1465 75.5218 13.8901 73.1586 10.0244 69.2929L8.61014 70.7071C12.8864 74.9834 19.6047 77.4493 25.8364 78.8915C32.104 80.342 38.0549 80.7953 40.9513 80.9364L41.0487 78.9388ZM40 79.9376V80H42V79.9376H40ZM41 80C41.0093 81 41.0094 81 41.0094 81C41.0094 81 41.0094 81 41.0094 81C41.0095 81 41.0095 81 41.0096 81C41.0097 81 41.0098 81 41.0099 81C41.0102 80.9999 41.0106 80.9999 41.011 80.9999C41.0119 80.9999 41.0131 80.9999 41.0146 80.9999C41.0176 80.9999 41.0219 80.9998 41.0274 80.9998C41.0383 80.9996 41.0543 80.9994 41.075 80.9991C41.1165 80.9984 41.1773 80.9974 41.2564 80.9957C41.4147 80.9922 41.6464 80.9861 41.9442 80.9755L41.873 78.9768C41.5849 78.987 41.3624 78.9929 41.2128 78.9961C41.138 78.9978 41.0815 78.9987 41.0442 78.9993C41.0255 78.9996 41.0117 78.9998 41.0027 78.9999C40.9982 79 40.995 79 40.993 79C40.992 79 40.9913 79 40.9909 79C40.9907 79 40.9906 79 40.9906 79C40.9906 79 40.9906 79 40.9906 79C40.9906 79 40.9906 79 40.9906 79C40.9906 79 40.9907 79 40.9907 79C40.9907 79 40.9907 79 41 80ZM42.8172 80C42.8265 79 42.8265 79 42.8266 79C42.8266 79 42.8266 79 42.8266 79C42.8266 79 42.8266 79 42.8267 79C42.8267 79 42.8267 79 42.8267 79C42.8266 79 42.8265 79 42.8263 79C42.826 79 42.8253 79 42.8243 79C42.8223 79 42.819 79 42.8145 78.9999C42.8056 78.9998 42.7917 78.9996 42.773 78.9993C42.7357 78.9987 42.6792 78.9978 42.6044 78.9961C42.4548 78.9929 42.2323 78.987 41.9442 78.9768L41.873 80.9755C42.1708 80.9861 42.4025 80.9922 42.5608 80.9957C42.6399 80.9974 42.7007 80.9984 42.7422 80.9991C42.763 80.9994 42.7789 80.9996 42.7899 80.9998C42.7954 80.9998 42.7996 80.9999 42.8026 80.9999C42.8041 80.9999 42.8053 80.9999 42.8062 80.9999C42.8067 80.9999 42.807 80.9999 42.8073 81C42.8074 81 42.8076 81 42.8077 81C42.8077 81 42.8078 81 42.8078 81C42.8078 81 42.8078 81 42.8079 81C42.8079 81 42.8079 81 42.8172 80ZM41.8172 79.9376V80H43.8172V79.9376H41.8172ZM42.8659 80.9364C45.7623 80.7953 51.7132 80.342 57.9808 78.8915C64.2125 77.4493 70.9308 74.9834 75.2071 70.7071L73.7929 69.2929C69.9272 73.1586 63.6707 75.5218 57.5299 76.943C51.4249 78.3559 45.6054 78.8005 42.7685 78.9388L42.8659 80.9364ZM75.2071 70.7071C82.9667 62.9475 85.2597 53.3382 82.9752 43.2785L81.0248 43.7215C83.168 53.1585 81.0332 62.0525 73.7929 69.2929L75.2071 70.7071ZM82.9752 43.2785C82.1965 39.8498 80.8974 34.7119 79.7956 30.4406C79.2442 28.3029 78.7413 26.3788 78.3762 24.9892C78.1937 24.2943 78.0456 23.733 77.9431 23.3453C77.8919 23.1515 77.8521 23.0011 77.825 22.8991C77.8115 22.848 77.8012 22.8091 77.7943 22.783C77.7908 22.7699 77.7881 22.76 77.7864 22.7533C77.7855 22.75 77.7848 22.7475 77.7844 22.7458C77.7842 22.745 77.784 22.7443 77.7839 22.7439C77.7838 22.7437 77.7838 22.7435 77.7838 22.7434C77.7837 22.7433 77.7837 22.7432 76.8172 23C75.8508 23.2568 75.8508 23.2568 75.8508 23.2569C75.8508 23.257 75.8509 23.2571 75.8509 23.2573C75.851 23.2577 75.8512 23.2584 75.8514 23.2592C75.8518 23.2608 75.8525 23.2633 75.8534 23.2666C75.8551 23.2731 75.8577 23.2829 75.8611 23.2959C75.868 23.3219 75.8783 23.3606 75.8918 23.4114C75.9187 23.513 75.9584 23.6631 76.0096 23.8564C76.1118 24.2432 76.2596 24.8036 76.4419 25.4973C76.8064 26.8849 77.3085 28.806 77.859 30.9401C78.9611 35.2124 80.2534 40.3245 81.0248 43.7215L82.9752 43.2785ZM77.8117 22.8953L75.4945 0.89525L73.5055 1.10475L75.8227 23.1047L77.8117 22.8953ZM73.7087 0.388553L56.7087 22.3886L58.2913 23.6114L75.2913 1.61145L73.7087 0.388553ZM57.5 22H42.8172V24H57.5V22ZM42.8172 22H41V24H42.8172V22Z" fill="#484848"/>
<ellipse cx="23" cy="44" rx="9" ry="7" transform="rotate(15 23 44)" fill="#8CD186" stroke="#484848" stroke-width="1.5"/>
<ellipse cx="23" cy="44" rx="5" ry="6" fill="#124520"/>
<circle cx="20.6" cy="40.4" r="2" fill="white"/>
<ellipse cx="60" cy="44" rx="9" ry="7" transform="rotate(-15 60 44)" fill="#8CD186" stroke="#484848" stroke-width="1.5"/>
<ellipse cx="60" cy="44" rx="5" ry="6" fill="#124520"/>
<circle cx="57.6" cy="40.4" r="2" fill="white"/>
<path d="M35 64C35 64 34.4238 65 37.0289 65C40 65 41.5289 62.5 41.5289 62.5" stroke="#484848" stroke-width="1.5" stroke-linecap="round"/>
<path d="M49 63.5C49 63.5 49 65 46.5 65C43.8442 65 42 62.5 42 62.5" stroke="#484848" stroke-width="1.5" stroke-linecap="round"/>
<path d="M42.1929 58.5874C42.0929 58.7087 41.9071 58.7087 41.8071 58.5874L39.598 55.9091C39.4636 55.746 39.5795 55.5 39.7909 55.5L44.2091 55.5C44.4205 55.5 44.5364 55.746 44.402 55.9091L42.1929 58.5874Z" fill="#E29D8E" stroke="#484848" stroke-width="1.5" stroke-linejoin="round"/>
<line x1="15.839" y1="58.351" x2="23.3335" y2="59.308" stroke="#484848" stroke-width="1.5" stroke-linecap="round"/>
<line x1="15.7885" y1="62.2906" x2="23.3334" y2="62.689" stroke="#484848" stroke-width="1.5" stroke-linecap="round"/>
<line x1="0.75" y1="-0.75" x2="8.30539" y2="-0.75" transform="matrix(-0.991947 0.126654 0.126654 0.991947 68.0428 60)" stroke="#484848" stroke-width="1.5" stroke-linecap="round"/>
<line x1="0.75" y1="-0.75" x2="8.30539" y2="-0.75" transform="matrix(-0.998608 0.0527372 0.0527372 0.998608 68.0428 64)" stroke="#484848" stroke-width="1.5" stroke-linecap="round"/>
<path d="M26.5151 22.5002C26.3341 22.4947 26.1642 22.5876 26.0711 22.743C25.978 22.8984 25.9762 23.092 26.0665 23.2491L26.5 23L26.0665 23.2491L26.0665 23.2492L26.0668 23.2497L26.068 23.2517L26.0728 23.2602L26.0923 23.2942C26.1094 23.3243 26.1348 23.3689 26.1677 23.427C26.2333 23.543 26.3286 23.7124 26.4467 23.9249C26.6829 24.3501 27.0098 24.9474 27.3728 25.6356C28.1009 27.0161 28.9656 28.7466 29.5352 30.1842C29.756 30.7414 30.0017 31.4778 30.1942 32.0823C30.2899 32.3829 30.3716 32.6481 30.4293 32.8381C30.4582 32.933 30.481 33.0091 30.4966 33.0613L30.5144 33.121L30.5189 33.1363L30.52 33.1401L30.5203 33.141L30.5203 33.1412L30.5203 33.1412C30.5948 33.394 30.8527 33.5457 31.1098 33.4878L31 33C31.1098 33.4878 31.1099 33.4878 31.11 33.4878L31.1103 33.4877L31.1111 33.4875L31.1138 33.4869L31.1239 33.4846L31.1619 33.4758C31.1949 33.4681 31.2431 33.4567 31.305 33.4418C31.4286 33.4118 31.6068 33.3676 31.8274 33.3097C32.2683 33.194 32.8796 33.0234 33.5627 32.8039C34.9152 32.369 36.5992 31.7262 37.7833 30.912C39.2978 29.8706 40.7162 28.053 41.7384 26.5414C42.2548 25.7779 42.6798 25.0775 42.9758 24.5679C43.1239 24.3129 43.24 24.1052 43.3194 23.9607C43.3591 23.8884 43.3896 23.8319 43.4104 23.7931L43.4342 23.7485L43.4405 23.7367L43.4422 23.7334L43.4426 23.7325L43.4428 23.7322C43.4429 23.7321 43.4429 23.732 43 23.5L43.4429 23.732C43.5228 23.5794 43.5186 23.3964 43.4317 23.2477C43.3447 23.0989 43.1873 23.0054 43.0151 23.0002L26.5151 22.5002Z" fill="#484848" stroke="#484848" stroke-linecap="round" stroke-linejoin="round"/>
<path d="M48.5 33C48.8026 33.398 48.8027 33.398 48.8027 33.398L48.8029 33.3978L48.8034 33.3974L48.8054 33.3959L48.8128 33.3903L48.8411 33.3686C48.8659 33.3496 48.9022 33.3217 48.949 33.2856C49.0425 33.2133 49.1776 33.1082 49.3451 32.9761C49.68 32.712 50.1448 32.3398 50.6648 31.9067C51.6996 31.0449 52.9721 29.9265 53.8704 28.9359C54.7986 27.9123 55.8151 26.4873 56.5919 25.3325C56.9822 24.7523 57.3155 24.2349 57.5513 23.8625C57.6693 23.6763 57.7629 23.5261 57.8272 23.4223C57.8594 23.3703 57.8842 23.33 57.9011 23.3025L57.9204 23.271L57.9254 23.2628L57.9267 23.2606L57.9271 23.26L57.9272 23.2599C57.9272 23.2598 57.9272 23.2598 57.5 23L57.9272 23.2598C58.0211 23.1054 58.0244 22.9124 57.9358 22.7549C57.8473 22.5975 57.6807 22.5 57.5 22.5H46C45.8393 22.5 45.6883 22.5773 45.5944 22.7077C45.5004 22.8381 45.4748 23.0057 45.5257 23.1582L46 23L45.5257 23.1582L45.5257 23.1583L45.5258 23.1586L45.5264 23.1602L45.5285 23.1665L45.5369 23.1918L45.5694 23.2903C45.5977 23.3762 45.6388 23.5013 45.6897 23.6577C45.7914 23.9705 45.9321 24.4082 46.0882 24.9073C46.4011 25.9083 46.7724 27.1466 47.0148 28.1207C47.2515 29.0722 47.4994 30.3105 47.6889 31.3172C47.7835 31.8192 47.8631 32.2611 47.919 32.5775C47.947 32.7357 47.969 32.8624 47.984 32.9495L48.0012 33.0493L48.0056 33.075L48.0067 33.0814L48.0069 33.083L48.007 33.0833L48.007 33.0834L48.5 33ZM48.5 33L48.8026 33.398C48.6634 33.5039 48.4789 33.5293 48.3162 33.465C48.1534 33.4006 48.0362 33.2559 48.007 33.0834L48.5 33Z" fill="#484848" stroke="#484848" stroke-linecap="round" stroke-linejoin="round"/>
</svg>
